<?xml version="1.0" encoding="UTF-8"?>
<svg id="c" data-name="02 colors" xmlns="http://www.w3.org/2000/svg" viewBox="0 0 1348.3 480.9">
  <defs>
    <style>
      .d {
        letter-spacing: 0em;
      }

      .e {
        letter-spacing: 0em;
      }

      .f, .g {
        fill: #1f5d3a;
      }

      .g {
        font-family: Cinzel-Bold, Cinzel;
        font-size: 132.03px;
        font-weight: 700;
      }

      .h {
        letter-spacing: -.03em;
      }

      .i {
        letter-spacing: -.02em;
      }

      .j {
        letter-spacing: -.02em;
      }

      .k {
        letter-spacing: 0em;
      }

      .l {
        letter-spacing: 0em;
      }

      .m {
        letter-spacing: -.01em;
      }
    </style>
  </defs>
  <g>
    <path class="f" d="M196.52,479.88c-3.43,1.32-5.73,1.35-8.79.12-50.99-20.55-95.19-50.88-127.47-89.26C23.04,346.45,1.31,293.84,0,240.03V94.81s.39-53.9.39-53.9c6.78-3.71,13.33-6.64,20.86-9.31,29.99-10.63,60.94-18.18,93.07-23.87C141.51,2.92,168.39-.13,196.15,0c56.56.27,119.76,11.36,170.54,31.35,6.85,2.7,12.77,5.39,18.7,9.13l-.12,7.85-.58,188.26c-2.72,103.66-71.58,198.22-188.17,243.29ZM101.39,412.89c26.35,22.68,56.44,41.4,90.63,55.37,62.36-24.98,111.19-64.45,142.44-114.72,23.55-37.85,34.92-79.46,35.13-121.91l.94-184.44c-10.96-5.35-22-9.56-33.93-13.31-43.61-13.7-89.45-21.05-136.32-21.67-19.3-.13-37.25.88-56.23,3.25-29.34,3.89-57.56,9.45-85.64,17.22-14.99,4.14-29.06,8.85-43.01,14.85l-.57,95.65-.05,93.84c-.02,36.84,11.11,72.65,29.42,106.16,14.49,25.54,33.16,49.06,57.18,69.74Z"/>
    <g>
      <polygon class="f" points="190.64 186.14 153.79 203.31 158.28 166.74 190.65 156.29 222.57 166.75 227.13 203.55 190.64 186.14"/>
      <path class="f" d="M195.74,371.57c-7.63-4.26-15.97-6.04-24.03-9.32l-12.87,1.43,9.68-5.69-14.09-11.52-19.99-2.67-14.89,13.17,12.25,3.95-15.79-.16-33.96,11.93,23.46-15.92,15.51-19.85,28.56-3.63,28.51-15.89-15.37,23.92,12.46,14.5,23.82,6.28,13.66,15.58,20.03,3.77,39.89,30.7-46.79-23.72c-4.1-1.22-8.68-.94-13.38-1.48l-7.04,11.41,3.47-14.61c-4.85-3.5-7.79-9.23-13.1-12.19Z"/>
      <path class="f" d="M224.21,157.89l-33.63-10.93-32.72,10.44c-1.33.42-2.14,1.13-3.35,2.62l-3.85-3.4.03-20.41,39.9-12.94,39.68,12.92v20.41s-4.29,3.5-4.29,3.5l-1.78-2.2Z"/>
      <path class="f" d="M194.9,93.07c-1-3.38-8.7-2.79-9.52.13l-.18,24.41-6.9,2.29c-.16-8.73.33-16.72-.44-25.23-.29-3.18-7.27-2.44-8.52.4l-.15,27.83-6.92,2.12-.07-31.02c-2.82-1.08-4.46-4.15-2.88-6.48l31.21-9.1,30.64,9.27c.37.43.8,2.86.45,3.67-.4.92-1.89,1.8-3.31,2.78l-.07,30.73-6.94-2.17-.12-27.58c-1.92-2.67-6.63-3.39-8.72-.85l-.22,25.36-6.99-2.26c-.04-8.33.33-15.86-.36-24.28Z"/>
      <path class="f" d="M190.82,72.95l-36.59,10.84-.12-6.36,32.21-24.99.11-15.98c.01-1.71,2.92-3.13,4.37-3,1.72.15,3.99,1.95,4.01,3.99l.15,15.12,31.86,25.15-.02,6.05-35.98-10.82Z"/>
      <path class="f" d="M185.31,414.04l-20.73-25.27-16.8-2.26c-12.78,6.62-24.21,13.53-38.03,19.72l30-26.53,25.91-3.64,21.86,30.02,28.89,26.66c-11.22-5.77-20.62-12.36-31.1-18.7Z"/>
      <path class="f" d="M221.23,336.73c-.1-.58-.36-2.04-.2-1.11l1.66.84,14.54,11.68c3.16,2.54,4.56,5.16,6.77,8.37,1.62,2.36,5.59,3.92,7.52,6.24,4.85,5.81,9.53,11.2,13.63,18.18-6.15-4.38-10.1-10.08-15.51-14.93l-10.36-6.96-17.72-22.21-.34-.11Z"/>
      <rect class="f" x="157.93" y="363.8" width=".47" height=".47" transform="translate(-211.09 218.46) rotate(-45)"/>
      <polygon class="f" points="303.47 370.14 273.27 353.1 259.21 345.02 237.44 344.41 217.42 323.39 179.41 309.73 148.83 328.11 138.3 329.71 152.12 217.68 190.64 200.38 228.62 217.64 242.9 335.34 265.16 337.74 304.11 369.26 304.83 369.89 303.81 370.32 303.47 370.14"/>
    </g>
  </g>
  <g>
    <text class="g" transform="translate(437.16 207.38)"><tspan class="m" x="0" y="0">R</tspan><tspan x="97.04" y="0">ETI</tspan><tspan class="m" x="319.64" y="0">R</tspan><tspan class="d" x="416.69" y="0">EM</tspan><tspan class="l" x="625.95" y="0">E</tspan><tspan class="d" x="708.87" y="0">NT</tspan></text>
    <text class="g" transform="translate(618.44 336.63)"><tspan class="k" x="0" y="0">E</tspan><tspan class="i" x="82.91" y="0">N</tspan><tspan class="h" x="194.88" y="0">G</tspan><tspan class="e" x="301.95" y="0">I</tspan><tspan class="j" x="353.05" y="0">N</tspan><tspan class="d" x="465.14" y="0">E</tspan></text>
    <rect class="f" x="437.16" y="283.05" width="154.14" height="12.06"/>
    <rect class="f" x="1194.15" y="283.05" width="154.14" height="12.06"/>
  </g>
</svg>